<?xml version="1.0" encoding="UTF-8" standalone="no"?><!DOCTYPE svg PUBLIC "-//W3C//DTD SVG 1.1//EN" "http://www.w3.org/Graphics/SVG/1.1/DTD/svg11.dtd"><svg width="100%" height="100%" viewBox="0 0 2142 2009" version="1.1" xmlns="http://www.w3.org/2000/svg" xmlns:xlink="http://www.w3.org/1999/xlink" xml:space="preserve" xmlns:serif="http://www.serif.com/" style="fill-rule:evenodd;clip-rule:evenodd;stroke-linejoin:round;stroke-miterlimit:2;"><path d="M1408.04,277.931l-319.169,300.523l-9.871,118.455l-421.172,458.463l-136.003,-39.485l-88.841,-0l76.776,208.392l-26.323,28.517l-176.585,-21.936l-46.066,184.263l-231.425,367.428l-25.227,76.776l49.357,48.259l89.937,-12.064l455.173,-172.198l221.554,-25.227l-70.196,-235.812l318.073,103.099l-6.581,-99.809l-89.938,-165.617l474.915,-365.234l167.811,-19.743l523.194,-460.393l0.702,-85.639l-43.521,-67.387l35.098,-52.646l-18.953,-20.357l-56.858,30.184l-64.58,-40.713l-35.098,-1.404l64.58,-70.196l-2.106,-88.446l-30.886,-56.156l32.29,-51.944l-21.058,-23.165l-49.137,25.27l-88.446,-51.242l-85.638,7.019l-122.14,103.889l-89.534,-5.504l-127.366,101.955l-26.742,69.825Z" style="fill:#fff;"/></svg>